<svg xmlns="http://www.w3.org/2000/svg" xmlns:xlink="http://www.w3.org/1999/xlink" width="3000" zoomAndPan="magnify" viewBox="0 0 2250 2250.000011" height="3000" preserveAspectRatio="xMidYMid meet" version="1.0"><defs><g/><clipPath id="88f70b458a"><path d="M 0.5 0 L 2249.5 0 L 2249.5 2249 L 0.5 2249 Z M 0.5 0 " clip-rule="nonzero"/></clipPath><clipPath id="cd95064ed1"><path d="M 0.5 0 L 2249.5 0 L 2249.5 2249 L 0.5 2249 Z M 0.5 0 " clip-rule="nonzero"/></clipPath><clipPath id="1c23da4103"><path d="M 1125 0 C 503.957031 0 0.5 503.457031 0.5 1124.5 C 0.5 1745.542969 503.957031 2249 1125 2249 C 1746.042969 2249 2249.5 1745.542969 2249.5 1124.5 C 2249.5 503.457031 1746.042969 0 1125 0 Z M 1125 0 " clip-rule="nonzero"/></clipPath></defs><g clip-path="url(#88f70b458a)"><path fill="#ffffff" d="M 0.5 0 L 2249.5 0 L 2249.5 2249 L 0.5 2249 Z M 0.5 0 " fill-opacity="1" fill-rule="nonzero"/><path fill="#ffffff" d="M 0.5 0 L 2249.5 0 L 2249.5 2249 L 0.5 2249 Z M 0.5 0 " fill-opacity="1" fill-rule="nonzero"/></g><g clip-path="url(#cd95064ed1)"><g clip-path="url(#1c23da4103)"><path fill="#000000" d="M 0.5 0 L 2249.5 0 L 2249.5 2249 L 0.5 2249 Z M 0.5 0 " fill-opacity="1" fill-rule="nonzero"/></g></g><g fill="#eeeeee" fill-opacity="1"><g transform="translate(360.726381, 1283.42964)"><g><path d="M 13.859375 15.53125 L 13.859375 -46.171875 C 23.367188 -39.742188 31.972656 -34.425781 39.671875 -30.21875 C 47.367188 -26.019531 55.414062 -23.007812 63.8125 -21.1875 C 72.207031 -19.375 82.28125 -18.46875 94.03125 -18.46875 C 104.394531 -18.46875 112.441406 -21.265625 118.171875 -26.859375 C 123.910156 -32.460938 126.78125 -39.179688 126.78125 -47.015625 C 126.78125 -51.492188 125.519531 -55.625 123 -59.40625 C 120.488281 -63.1875 115.734375 -66.960938 108.734375 -70.734375 C 101.734375 -74.515625 91.515625 -78.644531 78.078125 -83.125 C 35.546875 -95.71875 14.28125 -119.785156 14.28125 -155.328125 C 14.28125 -169.046875 17.707031 -181.222656 24.5625 -191.859375 C 31.414062 -202.492188 41.140625 -210.957031 53.734375 -217.25 C 66.328125 -223.550781 81.441406 -226.703125 99.078125 -226.703125 C 110.546875 -226.703125 121.664062 -225.789062 132.4375 -223.96875 C 143.21875 -222.144531 153.507812 -219.554688 163.3125 -216.203125 L 163.3125 -158.265625 C 148.757812 -166.109375 136.65625 -171.285156 127 -173.796875 C 117.34375 -176.316406 107.894531 -177.578125 98.65625 -177.578125 C 87.457031 -177.578125 80.039062 -175.195312 76.40625 -170.4375 C 72.769531 -165.6875 70.953125 -160.789062 70.953125 -155.75 C 70.953125 -150.988281 72.421875 -146.507812 75.359375 -142.3125 C 78.296875 -138.113281 84.941406 -134.476562 95.296875 -131.40625 C 110.972656 -126.644531 125.664062 -120.90625 139.375 -114.1875 C 153.09375 -107.46875 164.21875 -98.71875 172.75 -87.9375 C 181.289062 -77.164062 185.5625 -63.523438 185.5625 -47.015625 C 185.5625 -31.066406 181.082031 -17.285156 172.125 -5.671875 C 163.164062 5.941406 151.476562 14.894531 137.0625 21.1875 C 122.65625 27.488281 107.332031 30.640625 91.09375 30.640625 C 81.019531 30.640625 71.992188 30.21875 64.015625 29.375 C 56.046875 28.539062 48.140625 27.003906 40.296875 24.765625 C 32.460938 22.523438 23.648438 19.445312 13.859375 15.53125 Z M 13.859375 15.53125 "/></g></g></g><g fill="#eeeeee" fill-opacity="1"><g transform="translate(560.137401, 1283.42964)"><g><path d="M 227.953125 22.25 L 169.609375 22.25 L 169.609375 10.921875 C 159.253906 17.359375 149.382812 21.691406 140 23.921875 C 130.625 26.160156 120.617188 27.28125 109.984375 27.28125 C 92.640625 27.28125 76.898438 24.269531 62.765625 18.25 C 48.628906 12.238281 37.363281 3.566406 28.96875 -7.765625 C 20.570312 -19.097656 16.375 -32.460938 16.375 -47.859375 C 16.375 -62.691406 20.640625 -76.332031 29.171875 -88.78125 C 37.710938 -101.238281 50.519531 -111.316406 67.59375 -119.015625 C 84.664062 -126.710938 105.65625 -130.5625 130.5625 -130.5625 C 137.28125 -130.5625 143.992188 -130.210938 150.703125 -129.515625 C 157.421875 -128.816406 163.722656 -127.765625 169.609375 -126.359375 L 170.03125 -141.890625 C 170.03125 -153.648438 164.5 -162.117188 153.4375 -167.296875 C 142.382812 -172.472656 128.742188 -175.0625 112.515625 -175.0625 C 101.597656 -175.0625 90.191406 -174.007812 78.296875 -171.90625 C 66.398438 -169.8125 54.992188 -166.945312 44.078125 -163.3125 L 44.078125 -214.53125 C 54.710938 -217.882812 66.394531 -220.539062 79.125 -222.5 C 91.863281 -224.457031 104.671875 -225.4375 117.546875 -225.4375 C 131.535156 -225.4375 145.109375 -224.109375 158.265625 -221.453125 C 171.421875 -218.796875 183.242188 -214.523438 193.734375 -208.640625 C 204.234375 -202.765625 212.5625 -195.140625 218.71875 -185.765625 C 224.875 -176.390625 227.953125 -164.84375 227.953125 -151.125 Z M 169.609375 -38.625 L 169.609375 -74.3125 C 163.453125 -77.664062 156.734375 -79.898438 149.453125 -81.015625 C 142.171875 -82.140625 135.3125 -82.703125 128.875 -82.703125 C 107.882812 -82.703125 93.117188 -79.898438 84.578125 -74.296875 C 76.046875 -68.703125 71.78125 -60.585938 71.78125 -49.953125 C 71.78125 -41.835938 75.140625 -34.769531 81.859375 -28.75 C 88.578125 -22.738281 99.210938 -19.734375 113.765625 -19.734375 C 126.640625 -19.734375 137.273438 -21.476562 145.671875 -24.96875 C 154.066406 -28.46875 162.046875 -33.019531 169.609375 -38.625 Z M 169.609375 -38.625 "/></g></g></g><g fill="#eeeeee" fill-opacity="1"><g transform="translate(817.902372, 1283.42964)"><g><path d="M 348.4375 21.828125 L 291.765625 21.828125 L 291.765625 -145.671875 C 291.765625 -153.503906 288.472656 -160.5 281.890625 -166.65625 C 275.316406 -172.820312 266.710938 -175.90625 256.078125 -175.90625 C 246.566406 -175.90625 238.101562 -172.820312 230.6875 -166.65625 C 223.269531 -160.5 218.582031 -152.523438 216.625 -142.734375 L 216.625 21.828125 L 159.953125 21.828125 L 159.953125 -145.671875 C 159.953125 -153.503906 156.734375 -160.5 150.296875 -166.65625 C 143.859375 -172.820312 135.179688 -175.90625 124.265625 -175.90625 C 114.742188 -175.90625 106.484375 -172.6875 99.484375 -166.25 C 92.492188 -159.8125 88.160156 -151.832031 86.484375 -142.3125 L 86.484375 21.828125 L 29.8125 21.828125 L 29.8125 -217.46875 L 86.484375 -217.46875 L 86.484375 -211.171875 C 92.640625 -215.085938 99.425781 -218.234375 106.84375 -220.609375 C 114.257812 -222.992188 122.023438 -224.1875 130.140625 -224.1875 C 146.097656 -224.1875 159.601562 -221.804688 170.65625 -217.046875 C 181.707031 -212.285156 190.734375 -206.265625 197.734375 -198.984375 C 205.566406 -206.265625 215.082031 -212.285156 226.28125 -217.046875 C 237.476562 -221.804688 249.375 -224.1875 261.96875 -224.1875 C 282.394531 -224.1875 298.972656 -220.40625 311.703125 -212.84375 C 324.441406 -205.289062 333.75 -195.84375 339.625 -184.5 C 345.5 -173.164062 348.4375 -161.484375 348.4375 -149.453125 Z M 348.4375 21.828125 "/></g></g></g><g fill="#eeeeee" fill-opacity="1"><g transform="translate(1196.153512, 1283.42964)"><g><path d="M 88.15625 159.109375 L 30.21875 159.53125 L 30.21875 -217.046875 L 88.578125 -217.046875 L 88.578125 -209.90625 C 97.253906 -214.945312 106.5625 -218.863281 116.5 -221.65625 C 126.4375 -224.457031 137 -225.859375 148.1875 -225.859375 C 172.539062 -225.859375 194.160156 -220.257812 213.046875 -209.0625 C 231.941406 -197.875 246.773438 -182.625 257.546875 -163.3125 C 268.328125 -144 273.71875 -122.164062 273.71875 -97.8125 C 273.71875 -73.46875 268.328125 -51.640625 257.546875 -32.328125 C 246.773438 -13.015625 231.941406 2.234375 213.046875 13.421875 C 194.160156 24.617188 172.539062 30.21875 148.1875 30.21875 C 137 30.21875 126.363281 28.816406 116.28125 26.015625 C 106.207031 23.222656 96.972656 19.3125 88.578125 14.28125 Z M 88.578125 -144.828125 L 88.578125 -49.53125 C 94.734375 -40.863281 103.054688 -34.078125 113.546875 -29.171875 C 124.046875 -24.273438 135.59375 -21.828125 148.1875 -21.828125 C 161.90625 -21.828125 173.800781 -25.113281 183.875 -31.6875 C 193.945312 -38.269531 201.78125 -47.296875 207.375 -58.765625 C 212.976562 -70.242188 215.78125 -83.117188 215.78125 -97.390625 C 215.78125 -111.953125 212.976562 -124.898438 207.375 -136.234375 C 201.78125 -147.566406 193.875 -156.585938 183.65625 -163.296875 C 173.445312 -170.015625 161.625 -173.375 148.1875 -173.375 C 135.3125 -173.375 123.695312 -170.851562 113.34375 -165.8125 C 102.988281 -160.78125 94.734375 -153.785156 88.578125 -144.828125 Z M 88.578125 -144.828125 "/></g></g></g><g fill="#eeeeee" fill-opacity="1"><g transform="translate(1485.824316, 1283.42964)"><g><path d="M 98.65625 22.25 L 37.359375 22.25 L 37.359375 -353.0625 L 98.65625 -353.0625 Z M 98.65625 22.25 "/></g></g></g><g fill="#eeeeee" fill-opacity="1"><g transform="translate(1621.423775, 1283.42964)"><g><path d="M 239.296875 -52.0625 L 239.296875 10.921875 C 228.941406 17.628906 215.503906 22.800781 198.984375 26.4375 C 182.472656 30.082031 164.703125 31.90625 145.671875 31.90625 C 117.128906 31.90625 93.0625 26.375 73.46875 15.3125 C 53.875 4.257812 39.109375 -10.914062 29.171875 -30.21875 C 19.242188 -49.53125 14.28125 -71.222656 14.28125 -95.296875 C 14.28125 -118.523438 18.546875 -140.070312 27.078125 -159.9375 C 35.609375 -179.8125 48.898438 -195.765625 66.953125 -207.796875 C 85.003906 -219.835938 108.023438 -225.859375 136.015625 -225.859375 C 155.890625 -225.859375 173.171875 -222.566406 187.859375 -215.984375 C 202.554688 -209.410156 214.734375 -200.382812 224.390625 -188.90625 C 234.046875 -177.4375 241.25 -164.425781 246 -149.875 C 250.757812 -135.320312 253.28125 -120.066406 253.5625 -104.109375 L 253.984375 -86.90625 L 72.625 -86.90625 L 72.625 -83.96875 C 72.625 -73.332031 75.421875 -62.90625 81.015625 -52.6875 C 86.617188 -42.46875 94.878906 -34.140625 105.796875 -27.703125 C 116.710938 -21.265625 130.144531 -18.046875 146.09375 -18.046875 C 157.851562 -18.046875 169.675781 -19.304688 181.5625 -21.828125 C 193.457031 -24.347656 204.441406 -28.195312 214.515625 -33.375 C 224.597656 -38.550781 232.859375 -44.78125 239.296875 -52.0625 Z M 74.734375 -130.5625 L 194.375 -130.5625 C 193.8125 -138.394531 191.570312 -145.878906 187.65625 -153.015625 C 183.738281 -160.160156 177.648438 -166.039062 169.390625 -170.65625 C 161.140625 -175.269531 150.015625 -177.578125 136.015625 -177.578125 C 123.421875 -177.578125 112.710938 -175.128906 103.890625 -170.234375 C 95.078125 -165.335938 88.289062 -159.320312 83.53125 -152.1875 C 78.78125 -145.050781 75.847656 -137.84375 74.734375 -130.5625 Z M 74.734375 -130.5625 "/></g></g></g></svg>